ffmpeg started on 2026-07-22 at 18:25:38
Report written to "dataffreport.log"
Log level: 32
Command line:
"C:\\ProgramData\\chocolatey\\lib\\ffmpeg\\tools\\ffmpeg\\bin\\ffmpeg.exe" -hide_banner -loglevel warning -nostdin -y -f lavfi -i "color=c=0x003366:size=1280x720:rate=30" -f lavfi -i "anullsrc=channel_layout=stereo:sample_rate=44100" -map 0:v:0 -map 1:a:0 -vf "format=yuv420p,drawtext=fontfile='C\\:/Windows/Fonts/meiryo.ttc':text='\x83e\x83X\x83g\x94\xd4\x91g\x83^\x83C\x83g\x83\x8b':fontsize=44:fontcolor=white:x=(w-text_w)/2:y=(h-text_h)/2:borderw=2:bordercolor=black,drawtext=fontfile='C\\:/Windows/Fonts/meiryo.ttc':textfile='C\\:/Users/maeba/Desktop/thm/data/overlay/ticker.txt':reload=1:fontsize=36:fontcolor=white:borderw=2:bordercolor=black:box=1:boxcolor=black@0.55:boxborderw=12:x=w-mod(t*180\\,w+tw):y=h-60" -c:v libx264 -preset veryfast -b:v 2500k -maxrate 3000k -bufsize 6000k -g 60 -c:a aac -b:a 128k -ar 44100 -ac 2 -t 120 -f hls -hls_time 4 -hls_list_size 8 -hls_flags delete_segments+independent_segments -hls_segment_filename "data\\hlsdbg\\seg_%05d.ts" "data\\hlsdbg\\index.m3u8"
Input #0, lavfi, from 'color=c=0x003366:size=1280x720:rate=30':
  Duration: N/A, start: 0.000000, bitrate: N/A
  Stream #0:0: Video: wrapped_avframe, yuv420p, 1280x720 [SAR 1:1 DAR 16:9], 30 fps, 30 tbr, 30 tbn
Input #1, lavfi, from 'anullsrc=channel_layout=stereo:sample_rate=44100':
  Duration: N/A, start: 0.000000, bitrate: 705 kb/s
  Stream #1:0: Audio: pcm_u8, 44100 Hz, stereo, u8, 705 kb/s
Stream mapping:
  Stream #0:0 -> #0:0 (wrapped_avframe (native) -> h264 (libx264))
  Stream #1:0 -> #0:1 (pcm_u8 (native) -> aac (native))
[libx264 @ 0000019cbe172cc0] using SAR=1/1
[libx264 @ 0000019cbe172cc0] using cpu capabilities: MMX2 SSE2Fast SSSE3 SSE4.2 AVX FMA3 BMI2 AVX2
[libx264 @ 0000019cbe172cc0] profile High, level 3.1, 4:2:0, 8-bit
[libx264 @ 0000019cbe172cc0] 264 - core 164 r3192 c24e06c - H.264/MPEG-4 AVC codec - Copyleft 2003-2024 - http://www.videolan.org/x264.html - options: cabac=1 ref=1 deblock=1:0:0 analyse=0x3:0x113 me=hex subme=2 psy=1 psy_rd=1.00:0.00 mixed_ref=0 me_range=16 chroma_me=1 trellis=0 8x8dct=1 cqm=0 deadzone=21,11 fast_pskip=1 chroma_qp_offset=0 threads=18 lookahead_threads=5 sliced_threads=0 nr=0 decimate=1 interlaced=0 bluray_compat=0 constrained_intra=0 bframes=3 b_pyramid=2 b_adapt=1 b_bias=0 direct=1 weightb=1 open_gop=0 weightp=1 keyint=60 keyint_min=6 scenecut=40 intra_refresh=0 rc_lookahead=10 rc=abr mbtree=1 bitrate=2500 ratetol=1.0 qcomp=0.60 qpmin=0 qpmax=69 qpstep=4 vbv_maxrate=3000 vbv_bufsize=6000 nal_hrd=none filler=0 ip_ratio=1.40 aq=1:1.00
Output #0, hls, to 'data\hlsdbg\index.m3u8':
  Metadata:
    encoder         : Lavf61.7.100
  Stream #0:0: Video: h264, yuv420p(tv, progressive), 1280x720 [SAR 1:1 DAR 16:9], q=2-31, 2500 kb/s, 30 fps, 90k tbn
      Metadata:
        encoder         : Lavc61.19.100 libx264
      Side data:
        cpb: bitrate max/min/avg: 3000000/0/2500000 buffer size: 6000000 vbv_delay: N/A
  Stream #0:1: Audio: aac (LC), 44100 Hz, stereo, fltp, 128 kb/s
      Metadata:
        encoder         : Lavc61.19.100 aac
[hls @ 0000019cbe16bb40] Opening 'data\hlsdbg\seg_00000.ts' for writing
[hls @ 0000019cbe16bb40] Failed to open file 'data\hlsdbg\seg_00000.ts'
[vost#0:0/libx264 @ 0000019cbe172940] Error submitting a packet to the muxer: No such file or directory
[vost#0:0/libx264 @ 0000019cbe172940] Error submitting a packet to the muxer: No such file or directory
[out#0/hls @ 0000019cbe16ba40] Error muxing a packet
[out#0/hls @ 0000019cbe16ba40] Task finished with error code: -2 (No such file or directory)
[out#0/hls @ 0000019cbe16ba40] Terminating thread with return code -2 (No such file or directory)
[hls @ 0000019cbe16bb40] Opening 'data\hlsdbg\seg_00000.ts' for writing
[hls @ 0000019cbe16bb40] Failed to open file 'data\hlsdbg\seg_00000.ts'
[hls @ 0000019cbe16bb40] Opening 'data\hlsdbg\index.m3u8.tmp' for writing
[out#0/hls @ 0000019cbe16ba40] video:135KiB audio:1KiB subtitle:0KiB other streams:0KiB global headers:0KiB muxing overhead: unknown
frame=  121 fps=0.0 q=-1.0 Lsize=N/A time=00:00:04.23 bitrate=N/A speed=8.97x    
[libx264 @ 0000019cbe172cc0] frame I:4     Avg QP: 2.68  size: 26083
[libx264 @ 0000019cbe172cc0] frame P:115   Avg QP: 1.90  size:  1258
[libx264 @ 0000019cbe172cc0] frame B:70    Avg QP: 2.16  size:   179
[libx264 @ 0000019cbe172cc0] consecutive B-frames: 35.4% 37.0% 25.4%  2.1%
[libx264 @ 0000019cbe172cc0] mb I  I16..4: 95.4%  0.0%  4.6%
[libx264 @ 0000019cbe172cc0] mb P  I16..4:  0.2%  0.0%  0.0%  P16..4:  1.9%  0.0%  0.0%  0.0%  0.0%    skip:97.8%
[libx264 @ 0000019cbe172cc0] mb B  I16..4:  0.1%  0.0%  0.0%  B16..8:  1.2%  0.1%  0.0%  direct: 0.0%  skip:98.6%  L0:75.4% L1:24.5% BI: 0.1%
[libx264 @ 0000019cbe172cc0] 8x8 transform intra:0.0% inter:9.4%
[libx264 @ 0000019cbe172cc0] coded y,uvDC,uvAC intra: 3.5% 5.2% 5.1% inter: 0.3% 0.4% 0.4%
[libx264 @ 0000019cbe172cc0] i16 v,h,dc,p: 95%  3%  2%  0%
[libx264 @ 0000019cbe172cc0] i8 v,h,dc,ddl,ddr,vr,hd,vl,hu: 33% 38% 17%  0%  4%  0%  0%  0%  8%
[libx264 @ 0000019cbe172cc0] i4 v,h,dc,ddl,ddr,vr,hd,vl,hu: 31% 23% 17%  5%  5%  4%  5%  4%  5%
[libx264 @ 0000019cbe172cc0] i8c dc,h,v,p: 90%  4%  5%  0%
[libx264 @ 0000019cbe172cc0] Weighted P-Frames: Y:0.0% UV:0.0%
[libx264 @ 0000019cbe172cc0] kb/s:332.02
[aac @ 0000019cbe177e40] Qavg: 65536.000
Conversion failed!
